<svg width="45" height="45" viewBox="0 0 45 45" fill="none" xmlns="http://www.w3.org/2000/svg">
<path d="M37.3556 21.8896L27.9772 12.5145L28.8401 11.6508L39.6888 22.4999L28.8401 33.3483L27.9772 32.4861L37.3556 23.1084H6.50897V21.8896H37.3556Z" fill="#1E1913"/>
<path d="M22.4996 0C34.9066 0 45 10.0935 45 22.5008C45 34.9055 34.9066 45 22.4996 45C10.0925 45 4.19617e-05 34.9055 4.19617e-05 22.5008C4.19617e-05 10.0935 10.0925 0 22.4996 0ZM22.4996 43.9355C34.3194 43.9355 43.9364 34.32 43.9364 22.5006C43.9364 10.6788 34.3194 1.06239 22.4996 1.06239C10.6804 1.06239 1.06273 10.6788 1.06273 22.4997C1.06273 34.3193 10.6804 43.9355 22.4996 43.9355Z" fill="#1E1913"/>
</svg>
