<svg width="45" height="45" viewBox="0 0 45 45" fill="none" xmlns="http://www.w3.org/2000/svg">
<path d="M7.6444 21.8896L17.0228 12.5145L16.1599 11.6508L5.31116 22.4999L16.1599 33.3483L17.0228 32.4861L7.6444 23.1084H38.4911V21.8896H7.6444Z" fill="#EFEFEF"/>
<path d="M22.5005 0C10.0934 0 0 10.0935 0 22.5008C0 34.9055 10.0934 45 22.5005 45C34.9075 45 45 34.9055 45 22.5008C45 10.0935 34.9075 0 22.5005 0ZM22.5005 43.9355C10.6806 43.9355 1.06361 34.32 1.06361 22.5006C1.06361 10.6788 10.6806 1.06239 22.5005 1.06239C34.3196 1.06239 43.9373 10.6788 43.9373 22.4997C43.9373 34.3193 34.3196 43.9355 22.5005 43.9355Z" fill="#EFEFEF"/>
</svg>
