<svg width="50" height="50" viewBox="0 0 50 50" fill="none" xmlns="http://www.w3.org/2000/svg">
<path d="M25 0C11.25 0 0 11.25 0 25C0 38.75 11.25 50 25 50C38.75 50 50 38.75 50 25C50 11.25 38.75 0 25 0ZM25 48.3333C12.1667 48.3333 1.6667 37.8333 1.6667 25C1.6667 12.1667 12.1667 1.6667 25 1.6667C37.8333 1.6667 48.3333 12.1667 48.3333 25C48.3333 37.8333 37.8333 48.3333 25 48.3333Z" fill="#C3AB7A"/>
<path d="M41.3433 14.7935C41.7469 14.4588 41.4612 13.8861 40.891 13.8861H35.6558L38.2811 11.7091C38.3836 11.7303 38.4836 11.7611 38.5937 11.7611C39.3997 11.7611 40.0326 11.1438 39.8404 10.4479C39.7341 10.0643 39.3587 9.75194 38.8948 9.66481C38.0569 9.5065 37.3125 10.0303 37.3125 10.6986C37.3125 10.79 37.3497 10.8729 37.3753 10.9579L33.8442 13.8861H8.10897C7.53881 13.8861 7.25309 14.4588 7.65669 14.7935L23.8594 28.2299V39.3861H17.4531C17.0995 39.3861 16.8125 39.6241 16.8125 39.9174C16.8125 40.2106 17.0995 40.4486 17.4531 40.4486H31.5469C31.9005 40.4486 32.1875 40.2106 32.1875 39.9174C32.1875 39.6241 31.9005 39.3861 31.5469 39.3861H25.1406V28.2299L41.3433 14.7935ZM34.3746 14.9486H39.3446L38.0633 16.0111H33.0933L34.3746 14.9486ZM9.65544 14.9486H32.5629L31.2817 16.0111H31.2061C30.6807 15.7041 30.1311 15.5457 29.5648 15.5457C28.9293 15.5457 28.3873 15.7412 27.9043 16.0111H10.9367L9.65544 14.9486ZM30.4232 19.7947C29.8044 20.3079 29.2176 20.7265 28.5628 20.7265C28.1592 20.7265 27.73 20.5671 27.2521 20.1708C26.0016 19.1338 26.705 18.3709 27.7057 17.5411C28.3245 17.0279 28.9113 16.6093 29.5661 16.6093C29.9697 16.6093 30.3989 16.7687 30.8768 17.165C32.1273 18.202 31.4239 18.9649 30.4232 19.7947ZM24.5 27.2587L12.2179 17.0736H26.4667C25.7005 17.7589 24.6025 19.0233 25.8927 20.48L21.9375 23.7599C21.6877 23.9671 21.6877 24.3039 21.9375 24.5111C22.1873 24.7183 22.5935 24.7183 22.8433 24.5111L26.7909 21.2376C27.3559 21.5988 27.9491 21.7879 28.5641 21.7879C29.7339 21.7879 30.6052 21.1462 31.3303 20.5448C31.9838 20.0029 33.5892 18.6674 32.4168 17.0736H36.7821L24.5 27.2587Z" fill="#C3AB7A"/>
</svg>
