<svg width="33" height="33" viewBox="0 0 33 33" fill="none" xmlns="http://www.w3.org/2000/svg">
<path d="M22.8464 15.5854V7.33162V3.09433C22.8464 2.86001 22.6566 2.6706 22.4227 2.6706H20.304V1.39941C20.304 1.16509 20.1142 0.975685 19.8803 0.975685H16.9142C16.6803 0.975685 16.4905 1.16509 16.4905 1.39941V2.6706H7.16843V1.39941C7.16843 1.16509 6.9786 0.975685 6.7447 0.975685H3.7786C3.5447 0.975685 3.35487 1.16509 3.35487 1.39941V2.6706H1.23623C1.00233 2.6706 0.8125 2.86001 0.8125 3.09433V7.33162V24.7045C0.8125 24.9388 1.00233 25.1282 1.23623 25.1282H17.382C18.2303 25.6621 19.2303 25.9757 20.304 25.9757C23.3413 25.9757 25.8125 23.5045 25.8125 20.4672C25.8125 18.3473 24.6066 16.5058 22.8464 15.5854ZM17.3379 1.82314H19.4566V3.09433V4.36552H17.3379V3.09433V1.82314ZM4.20233 1.82314H6.32097V3.09433V4.36552H4.20233V3.09433V1.82314ZM1.65996 3.51806H3.35487V4.78924C3.35487 5.02357 3.5447 5.21297 3.7786 5.21297H6.7447C6.9786 5.21297 7.16843 5.02357 7.16843 4.78924V3.51806H16.4905V4.78924C16.4905 5.02357 16.6803 5.21297 16.9142 5.21297H19.8803C20.1142 5.21297 20.304 5.02357 20.304 4.78924V3.51806H21.9989V6.90789H1.65996V3.51806ZM1.65996 24.2808V7.75535H21.9989V15.2282C21.9159 15.2015 21.8311 15.1799 21.7464 15.1566C21.668 15.135 21.5896 15.1138 21.5104 15.0956C21.4388 15.0795 21.3663 15.0655 21.2939 15.0524C21.1905 15.0333 21.0867 15.0176 20.9824 15.0045C20.9244 14.9973 20.8667 14.9892 20.8083 14.9837C20.6413 14.9689 20.4731 14.9587 20.304 14.9587C20.1608 14.9587 20.0206 14.9693 19.8803 14.9803V14.535V13.6875V9.87399H16.0667H15.2193H12.2532H11.4057H8.43962H7.59216H3.7786V13.6875V14.535V17.5011V18.3486V22.1621H7.59216H8.43962H11.4057H12.2532H15.065C15.0773 22.1994 15.0926 22.2354 15.1053 22.2723C15.1409 22.3753 15.1761 22.4787 15.218 22.5791C15.2413 22.6354 15.2689 22.6892 15.2943 22.7443C15.343 22.852 15.3926 22.9592 15.4481 23.0634C15.4727 23.1087 15.5002 23.1524 15.5261 23.1973C15.5888 23.307 15.6523 23.4155 15.7227 23.5206C15.7485 23.5592 15.7769 23.5956 15.8036 23.6337C15.8782 23.7397 15.9544 23.8448 16.0371 23.9456C16.0676 23.9829 16.1006 24.0176 16.132 24.0541C16.1977 24.1303 16.2604 24.2083 16.3303 24.2812H1.65996V24.2808ZM17.8943 15.5214C17.8485 15.5435 17.8019 15.5642 17.757 15.5876C17.6773 15.6291 17.6002 15.6748 17.5231 15.7202C17.4557 15.7596 17.3883 15.7998 17.3227 15.8418C17.2561 15.885 17.1913 15.9291 17.1269 15.9748C17.0536 16.0265 16.9824 16.0808 16.9117 16.1359C16.8549 16.1803 16.7981 16.2244 16.7434 16.2714C16.6693 16.3342 16.5985 16.4007 16.5278 16.4672C16.479 16.5134 16.4286 16.5579 16.3816 16.6053C16.3049 16.6833 16.2324 16.7659 16.1604 16.8486C16.1299 16.8837 16.0964 16.9159 16.0663 16.952V14.535H19.0324V15.1121C19.0252 15.1138 19.0184 15.1164 19.0117 15.1181C18.6214 15.2125 18.2477 15.3486 17.8943 15.5214ZM15.0371 18.8566C15.0222 18.9053 15.0125 18.9553 14.9989 19.0045C14.965 19.1274 14.9303 19.2503 14.9049 19.377C14.885 19.4748 14.8739 19.5748 14.8595 19.674C14.8481 19.7541 14.832 19.8329 14.8235 19.9142C14.8053 20.0969 14.7956 20.2816 14.7956 20.4672C14.7956 20.6202 14.804 20.7748 14.818 20.9299C14.8206 20.9583 14.8206 20.9871 14.8235 21.0155C14.8303 21.0842 14.8439 21.1507 14.8532 21.2185V21.2189C14.8578 21.2511 14.8595 21.2829 14.8646 21.3147H12.2532V18.3486H15.2193V18.3515C15.215 18.3617 15.2125 18.3723 15.2083 18.3825C15.1447 18.5371 15.0867 18.6952 15.0371 18.8566ZM4.62606 18.3486H7.59216V21.3147H4.62606V18.3486ZM4.62606 14.535H7.59216V17.5011H4.62606V14.535ZM19.0328 13.6875H16.0667V10.7214H19.0328V13.6875ZM15.2193 13.6875H12.2532V10.7214H15.2193V13.6875ZM15.2193 17.5011H12.2532V14.535H15.2193V17.5011ZM8.43962 14.535H11.4057V17.5011H8.43962V14.535ZM11.4057 13.6875H8.43962V10.7214H11.4057V13.6875ZM7.59216 13.6875H4.62606V10.7214H7.59216V13.6875ZM8.43962 18.3486H11.4057V21.3147H8.43962V18.3486ZM20.304 25.1282C19.3472 25.1282 18.457 24.8375 17.7163 24.3409C17.5718 24.2443 17.4354 24.1392 17.3045 24.0291C17.2587 23.9901 17.2155 23.9486 17.1714 23.9079C17.0879 23.832 17.007 23.7541 16.9299 23.6731C16.8803 23.621 16.8324 23.5681 16.7854 23.5142C16.7159 23.4342 16.6506 23.3515 16.5871 23.2672C16.5464 23.2134 16.5044 23.1613 16.4659 23.1058C16.3722 22.9698 16.2841 22.8299 16.2053 22.685C16.1871 22.6511 16.1727 22.6155 16.1553 22.5812C16.0934 22.46 16.0358 22.3371 15.9845 22.2109C15.9625 22.1558 15.9434 22.0994 15.9231 22.0435C15.8833 21.9325 15.8468 21.8198 15.815 21.7058C15.8078 21.6795 15.8015 21.6532 15.7947 21.627C15.7468 21.4405 15.7117 21.2553 15.6867 21.071C15.685 21.0579 15.6824 21.0448 15.6807 21.0312C15.6561 20.8409 15.643 20.6524 15.643 20.4672C15.643 20.3066 15.6511 20.1473 15.6676 19.9892C15.6689 19.9761 15.6722 19.9634 15.6735 19.9503C15.6896 19.8058 15.7108 19.6617 15.7405 19.5198C15.7434 19.5062 15.7481 19.4931 15.7511 19.4795C15.7816 19.3388 15.8176 19.199 15.8612 19.0609C15.8663 19.0448 15.8735 19.0291 15.8786 19.013C15.9222 18.8808 15.9706 18.7494 16.0265 18.6206C16.079 18.4994 16.1358 18.3803 16.1981 18.2647L16.24 18.1922C16.257 18.1617 16.2769 18.1329 16.2947 18.1028C16.3684 17.9787 16.4472 17.8583 16.5307 17.7422C16.5515 17.7134 16.5731 17.685 16.5947 17.6566C16.671 17.5558 16.7515 17.4587 16.8354 17.3651C16.8646 17.3325 16.8939 17.2994 16.9239 17.2676C17.007 17.1795 17.0943 17.096 17.1837 17.0151C17.2155 16.9863 17.2464 16.9566 17.279 16.9287C17.3841 16.8388 17.493 16.7545 17.6053 16.6744C17.6231 16.6617 17.64 16.6477 17.6578 16.635C18.2108 16.2528 18.846 15.9909 19.5273 15.8765L19.5362 15.8753C19.7862 15.8333 20.0417 15.8062 20.304 15.8062C20.4689 15.8062 20.6328 15.8151 20.7956 15.8329C20.821 15.8354 20.8456 15.8414 20.871 15.8443C21.01 15.8617 21.1485 15.8825 21.2854 15.9121C21.3023 15.9159 21.3184 15.921 21.335 15.9248C21.4807 15.9583 21.6252 15.9973 21.768 16.0452C21.7778 16.0486 21.7871 16.0524 21.7968 16.0558C21.943 16.1058 22.0871 16.163 22.2299 16.2278C23.8409 16.9625 24.965 18.5846 24.965 20.4672C24.965 23.0371 22.8739 25.1282 20.304 25.1282Z" fill="#C3AB7A"/>
<path d="M22.8464 20.0774H20.7278V17.9587C20.7278 17.7244 20.538 17.535 20.3041 17.535C20.0702 17.535 19.8803 17.7244 19.8803 17.9587V20.0774H17.7617C17.5278 20.0774 17.338 20.2668 17.338 20.5011C17.338 20.7354 17.5278 20.9248 17.7617 20.9248H19.8803V23.0435C19.8803 23.2778 20.0702 23.4672 20.3041 23.4672C20.538 23.4672 20.7278 23.2778 20.7278 23.0435V20.9248H22.8464C23.0803 20.9248 23.2702 20.7354 23.2702 20.5011C23.2702 20.2668 23.0803 20.0774 22.8464 20.0774Z" fill="#C3AB7A"/>
</svg>
