<svg width="24" height="24" viewBox="0 0 24 24" fill="none" xmlns="http://www.w3.org/2000/svg">
<g clip-path="url(#clip0_462_165)">
<path d="M12 0.959961C5.90858 0.959961 0.960007 5.90854 0.960007 12C0.960007 13.9579 1.49698 15.7852 2.39251 17.3803L0.977819 22.4306C0.955218 22.5114 0.954197 22.5967 0.974857 22.6781C0.995518 22.7594 1.03714 22.8339 1.09557 22.8941C1.154 22.9544 1.2272 22.9982 1.30787 23.0213C1.38853 23.0445 1.47385 23.046 1.55532 23.0259L6.82126 21.7209C8.36863 22.547 10.1245 23.04 12 23.04C18.0914 23.04 23.04 18.0914 23.04 12C23.04 5.90854 18.0914 0.959961 12 0.959961ZM12 1.91996C17.5726 1.91996 22.08 6.42738 22.08 12C22.08 17.5725 17.5726 22.08 12 22.08C10.2135 22.08 8.54022 21.6142 7.08563 20.8003C6.97924 20.7408 6.85423 20.7241 6.73594 20.7534L2.12438 21.8962L3.36094 17.4843C3.37864 17.422 3.38352 17.3567 3.37531 17.2924C3.36709 17.2281 3.34594 17.1662 3.31313 17.1103C2.42914 15.6113 1.92001 13.8672 1.92001 12C1.92001 6.42738 6.42743 1.91996 12 1.91996ZM7.98844 6.23996C7.68075 6.23996 7.24131 6.35444 6.88032 6.7434C6.6635 6.97702 5.76001 7.85733 5.76001 9.40496C5.76001 11.0185 6.87907 12.4108 7.01438 12.5896H7.01532V12.5906C7.00248 12.5737 7.18706 12.841 7.43344 13.1615C7.67983 13.482 8.02436 13.903 8.45719 14.3587C9.32286 15.2702 10.54 16.3235 12.0506 16.9678C12.7463 17.264 13.2951 17.4429 13.7109 17.5734C14.4815 17.8154 15.1834 17.7786 15.7106 17.7009C16.1053 17.6428 16.5393 17.4533 16.9688 17.1815C17.3982 16.9098 17.8191 16.5718 18.0047 16.0584C18.1377 15.6903 18.2052 15.3502 18.2297 15.0703C18.2419 14.9303 18.2435 14.8068 18.2344 14.6925C18.2253 14.5781 18.235 14.4905 18.1284 14.3156C17.905 13.9487 17.6519 13.9391 17.3878 13.8084C17.2411 13.7358 16.8234 13.5318 16.4044 13.3321C15.9859 13.1327 15.6235 12.9561 15.4003 12.8765C15.2593 12.8258 15.0872 12.7528 14.8388 12.7809C14.5904 12.809 14.345 12.9882 14.2022 13.2C14.0668 13.4006 13.5218 14.044 13.3556 14.2331C13.3534 14.2317 13.3678 14.2384 13.3022 14.2059C13.0967 14.1042 12.8454 14.0177 12.4734 13.8215C12.1015 13.6253 11.6363 13.3356 11.1272 12.8868V12.8859C10.3695 12.2188 9.8387 11.3813 9.67126 11.1C9.68254 11.0865 9.66992 11.1028 9.69376 11.0793L9.69469 11.0784C9.86582 10.9098 10.0175 10.7085 10.1456 10.5609C10.3273 10.3516 10.4075 10.1671 10.4944 9.99465C10.6675 9.65105 10.5711 9.27296 10.4709 9.07402V9.07309C10.4779 9.08685 10.4168 8.95204 10.3509 8.79652C10.2849 8.64057 10.2008 8.43838 10.1109 8.22277C9.93122 7.79156 9.73058 7.30792 9.61126 7.02465V7.02371C9.47069 6.69005 9.28052 6.44968 9.03188 6.33371C8.78325 6.21774 8.56358 6.25071 8.55469 6.25027H8.55376C8.37633 6.24209 8.18162 6.23996 7.98844 6.23996ZM7.98844 7.19996C8.1735 7.19996 8.35595 7.20222 8.50876 7.20934C8.66595 7.21717 8.65618 7.21781 8.62594 7.20371C8.59523 7.18939 8.6369 7.18474 8.72626 7.39684C8.84309 7.67421 9.04473 8.1596 9.22501 8.59215C9.31515 8.80842 9.39951 9.01139 9.46688 9.17059C9.53426 9.32978 9.57076 9.41866 9.61313 9.5034V9.50434L9.61407 9.50527C9.65561 9.58723 9.65194 9.53476 9.63751 9.5634C9.53621 9.76444 9.52247 9.8138 9.42001 9.93184C9.264 10.1116 9.10486 10.312 9.02063 10.395C8.94694 10.4674 8.81397 10.5801 8.73094 10.8009C8.64779 11.022 8.6866 11.3254 8.82001 11.5518C8.99762 11.8534 9.58292 12.806 10.4925 13.6068C11.0653 14.1118 11.599 14.446 12.0253 14.6709C12.4516 14.8958 12.7989 15.0271 12.8766 15.0656C13.0611 15.1569 13.2627 15.2278 13.4972 15.1996C13.7317 15.1715 13.9338 15.0292 14.0625 14.8837L14.0634 14.8828C14.2347 14.6886 14.7436 14.1075 14.9878 13.7493C14.9982 13.753 14.9948 13.7502 15.0759 13.7793V13.7803H15.0769C15.1139 13.7935 15.5781 14.0012 15.9919 14.1984C16.4057 14.3956 16.8257 14.6005 16.9622 14.6681C17.1592 14.7656 17.2522 14.829 17.2763 14.8293C17.2779 14.8716 17.2795 14.9173 17.2734 14.9868C17.2566 15.1796 17.2051 15.4465 17.1019 15.7321C17.0513 15.872 16.788 16.1604 16.4559 16.3706C16.1239 16.5807 15.7197 16.7292 15.57 16.7512C15.12 16.8175 14.5856 16.8417 13.9988 16.6575C13.5918 16.5297 13.0845 16.3644 12.4275 16.0846C11.0951 15.5164 9.96269 14.5495 9.15376 13.6978C8.74929 13.2719 8.42524 12.8755 8.19469 12.5756C7.96458 12.2762 7.8641 12.1205 7.78032 12.0103L7.77938 12.0093C7.63066 11.8127 6.72001 10.546 6.72001 9.40496C6.72001 8.1974 7.28089 7.72385 7.58438 7.39684C7.74371 7.22516 7.9179 7.19996 7.98844 7.19996Z" fill="#F4F2EF"/>
</g>
<defs>
<clipPath id="clip0_462_165">
<rect width="24" height="24" fill="white"/>
</clipPath>
</defs>
</svg>
