<svg width="50" height="50" viewBox="0 0 50 50" fill="none" xmlns="http://www.w3.org/2000/svg">
<path d="M29.2 22.9032H20.8C20.4688 22.9032 20.2 23.1645 20.2 23.4865C20.2 23.8085 20.4688 24.0698 20.8 24.0698H29.2C29.5318 24.0698 29.8 23.8085 29.8 23.4865C29.8 23.1645 29.5318 22.9032 29.2 22.9032Z" fill="#C3AB7A"/>
<path d="M41.2 17.0698H40C39.7629 17.0698 39.5374 17.117 39.3309 17.1981C39.1227 16.4543 38.4298 15.9031 37.5999 15.9031H36.3999C36.1629 15.9031 35.9373 15.9503 35.7309 16.0314C35.5228 15.2877 34.8298 14.7365 34 14.7365H32.8C31.8076 14.7365 31 15.5216 31 16.4865V33.9865C31 34.9513 31.8076 35.7365 32.8 35.7365H34C34.8298 35.7365 35.5228 35.1852 35.731 34.4415C35.9374 34.5225 36.163 34.5698 36.4 34.5698H37.6C38.5924 34.5698 39.4 33.7846 39.4 32.8198V32.1285C39.5884 32.1944 39.7882 32.2365 40 32.2365H41.2C42.1924 32.2365 43 31.4513 43 30.4865V18.8198C43 17.8549 42.1924 17.0698 41.2 17.0698ZM34.6 17.6531V32.8198V33.9865C34.6 34.3079 34.3312 34.5698 34 34.5698H32.8C32.4688 34.5698 32.2 34.3079 32.2 33.9865V16.4865C32.2 16.165 32.4688 15.9031 32.8 15.9031H34C34.3312 15.9031 34.6 16.165 34.6 16.4865V17.6531ZM38.2 18.8198V30.4865V32.8198C38.2 33.1412 37.9312 33.4031 37.6 33.4031H36.4C36.0688 33.4031 35.8 33.1412 35.8 32.8198V17.6531C35.8 17.3317 36.0688 17.0698 36.4 17.0698H37.6C37.9312 17.0698 38.2 17.3317 38.2 17.6531V18.8198ZM41.8 30.4865C41.8 30.8079 41.5312 31.0698 41.2 31.0698H40C39.6688 31.0698 39.4 30.8079 39.4 30.4865V18.8198C39.4 18.4983 39.6688 18.2365 40 18.2365H41.2C41.5312 18.2365 41.8 18.4983 41.8 18.8198V30.4865Z" fill="#C3AB7A"/>
<path d="M17.2 14.7365H16C15.1702 14.7365 14.4766 15.2877 14.2696 16.0315C14.062 15.9504 13.837 15.9031 13.6 15.9031H12.4C11.4076 15.9031 10.6 16.6883 10.6 17.6531V18.3438C10.4116 18.2784 10.2118 18.2365 10 18.2365H8.8C7.80761 18.2365 7 19.0216 7 19.9864V31.6531C7 32.618 7.80761 33.4031 8.8 33.4031H10C10.237 33.4031 10.462 33.3559 10.6696 33.2748C10.8766 34.0186 11.5702 34.5698 12.4 34.5698H13.6C13.837 34.5698 14.062 34.5226 14.2696 34.4415C14.4766 35.1853 15.1702 35.7365 16 35.7365H17.2C18.1924 35.7365 19 34.9513 19 33.9865V16.4865C19 15.5216 18.1924 14.7365 17.2 14.7365ZM10.6 31.6531C10.6 31.9746 10.3306 32.2365 10 32.2365H8.8C8.46939 32.2365 8.20002 31.9746 8.20002 31.6531V19.9864C8.20002 19.665 8.46939 19.4031 8.8 19.4031H10C10.3306 19.4031 10.6 19.665 10.6 19.9864V31.6531ZM14.2 32.8198C14.2 33.1412 13.9306 33.4031 13.6 33.4031H12.4C12.0694 33.4031 11.8 33.1412 11.8 32.8198V31.6531V19.9864V17.6531C11.8 17.3317 12.0694 17.0698 12.4 17.0698H13.6C13.9306 17.0698 14.2 17.3317 14.2 17.6531V32.8198ZM17.8 33.9865C17.8 34.3079 17.5306 34.5698 17.2 34.5698H16C15.6694 34.5698 15.4 34.3079 15.4 33.9865V32.8198V17.6531V16.4865C15.4 16.165 15.6694 15.9031 16 15.9031H17.2C17.5306 15.9031 17.8 16.165 17.8 16.4865V33.9865Z" fill="#C3AB7A"/>
<path d="M29.2 26.4032H20.8C20.4688 26.4032 20.2 26.6645 20.2 26.9865C20.2 27.3085 20.4688 27.5698 20.8 27.5698H29.2C29.5318 27.5698 29.8 27.3085 29.8 26.9865C29.8 26.6645 29.5318 26.4032 29.2 26.4032Z" fill="#C3AB7A"/>
<path d="M25 0C11.25 0 0 11.25 0 25C0 38.75 11.25 50 25 50C38.75 50 50 38.75 50 25C50 11.25 38.75 0 25 0ZM25 48.3333C12.1667 48.3333 1.6667 37.8333 1.6667 25C1.6667 12.1667 12.1667 1.6667 25 1.6667C37.8333 1.6667 48.3333 12.1667 48.3333 25C48.3333 37.8333 37.8333 48.3333 25 48.3333Z" fill="#C3AB7A"/>
</svg>
