<svg width="50" height="50" viewBox="0 0 50 50" fill="none" xmlns="http://www.w3.org/2000/svg">
<path d="M24.9999 13.082C20.7727 13.082 17.3335 16.282 17.3335 20.2154C17.3335 24.1487 20.7727 27.3487 24.9999 27.3487C29.2271 27.3487 32.6663 24.1487 32.6663 20.2154C32.6663 16.282 29.2271 13.082 24.9999 13.082ZM24.9999 25.4299C21.9097 25.4299 19.3955 23.0906 19.3955 20.2152C19.3955 17.3399 21.9097 15.0007 24.9999 15.0007C28.0901 15.0007 30.6042 17.34 30.6042 20.2154C30.6042 23.0907 28.0902 25.4299 24.9999 25.4299Z" fill="#C3AB7A"/>
<path d="M24.9999 8.11902C17.8317 8.11902 12 13.5454 12 20.2153C12 24.0619 15.467 29.7928 17.5336 32.8664C18.8933 34.8886 20.3544 36.8132 21.6477 38.2855C23.7237 40.6485 24.4667 40.8463 25.0001 40.8463C25.5414 40.8463 26.2429 40.6484 28.3124 38.2841C29.6086 36.8029 31.0704 34.8795 32.4288 32.868C34.5095 29.7868 38 24.0456 38 20.2151C38 13.5454 32.1683 8.11902 24.9999 8.11902ZM30.9992 31.3741C28.3329 35.4011 25.885 38.1224 24.9877 38.8171C24.0858 38.1437 21.6776 35.4872 18.974 31.3867C15.8524 26.652 14.0622 22.5801 14.0622 20.2153C14.062 14.6033 18.9687 10.0377 24.9999 10.0377C31.0311 10.0377 35.9378 14.6033 35.9378 20.2153C35.938 22.5666 34.1378 26.6337 30.9992 31.3741Z" fill="#C3AB7A"/>
<path d="M25 0C11.25 0 0 11.25 0 25C0 38.75 11.25 50 25 50C38.75 50 50 38.75 50 25C50 11.25 38.75 0 25 0ZM25 48.3333C12.1667 48.3333 1.6667 37.8333 1.6667 25C1.6667 12.1667 12.1667 1.6667 25 1.6667C37.8333 1.6667 48.3333 12.1667 48.3333 25C48.3333 37.8333 37.8333 48.3333 25 48.3333Z" fill="#C3AB7A"/>
</svg>
