<svg width="79" height="60" viewBox="0 0 79 60" fill="none" xmlns="http://www.w3.org/2000/svg">
<path d="M24.5 7L26.1839 12.1824H31.6329L27.2245 15.3853L28.9084 20.5676L24.5 17.3647L20.0916 20.5676L21.7755 15.3853L17.3671 12.1824H22.8161L24.5 7Z" fill="url(#paint0_linear_528_16)"/>
<path d="M54.5 7L56.1839 12.1824H61.6329L57.2245 15.3853L58.9084 20.5676L54.5 17.3647L50.0916 20.5676L51.7755 15.3853L47.3671 12.1824H52.8161L54.5 7Z" fill="url(#paint1_linear_528_16)"/>
<path d="M39.5 0L41.1839 5.18237H46.6329L42.2245 8.38525L43.9084 13.5676L39.5 10.3647L35.0916 13.5676L36.7755 8.38525L32.3671 5.18237H37.8161L39.5 0Z" fill="url(#paint2_linear_528_16)"/>
<path d="M5.58191 23.0729H73.2184" stroke="url(#paint3_linear_528_16)" stroke-width="3"/>
<path d="M5 51H72.6365" stroke="url(#paint4_linear_528_16)" stroke-width="3"/>
<path d="M19 58H59" stroke="url(#paint5_linear_528_16)" stroke-width="3"/>
<path d="M11.7656 36.4827V38.9534C11.7656 39.956 11.6549 40.8381 11.4336 41.5999C11.2188 42.3551 10.903 42.9866 10.4863 43.4944C10.0697 44.0022 9.56836 44.3831 8.98242 44.637C8.39648 44.8909 7.73568 45.0178 7 45.0178C6.29036 45.0178 5.64258 44.8909 5.05664 44.637C4.4707 44.3831 3.96615 44.0022 3.54297 43.4944C3.11979 42.9866 2.79102 42.3551 2.55664 41.5999C2.32878 40.8381 2.21484 39.956 2.21484 38.9534V36.4827C2.21484 35.4801 2.32878 34.6012 2.55664 33.8459C2.78451 33.0842 3.11003 32.4495 3.5332 31.9417C3.95638 31.4338 4.46094 31.053 5.04688 30.7991C5.63281 30.5387 6.2806 30.4084 6.99023 30.4084C7.72591 30.4084 8.38672 30.5387 8.97266 30.7991C9.5651 31.053 10.0664 31.4338 10.4766 31.9417C10.8932 32.4495 11.2122 33.0842 11.4336 33.8459C11.6549 34.6012 11.7656 35.4801 11.7656 36.4827ZM9.98828 38.9534V36.4631C9.98828 35.6819 9.92318 35.0113 9.79297 34.4514C9.66276 33.885 9.4707 33.4228 9.2168 33.0647C8.96289 32.7066 8.65039 32.443 8.2793 32.2737C7.9082 32.0979 7.47852 32.01 6.99023 32.01C6.52799 32.01 6.11133 32.0979 5.74023 32.2737C5.37565 32.443 5.06315 32.7066 4.80273 33.0647C4.54232 33.4228 4.34049 33.885 4.19727 34.4514C4.06055 35.0113 3.99219 35.6819 3.99219 36.4631V38.9534C3.99219 39.7411 4.06055 40.4182 4.19727 40.9846C4.34049 41.5445 4.54232 42.0068 4.80273 42.3713C5.06966 42.7294 5.38867 42.9963 5.75977 43.1721C6.13086 43.3414 6.54427 43.426 7 43.426C7.48828 43.426 7.91797 43.3414 8.28906 43.1721C8.66667 42.9963 8.97917 42.7294 9.22656 42.3713C9.48047 42.0068 9.66927 41.5445 9.79297 40.9846C9.92318 40.4182 9.98828 39.7411 9.98828 38.9534ZM20.7695 41.2288C20.7695 40.8967 20.7305 40.6038 20.6523 40.3499C20.5742 40.0894 20.4375 39.8551 20.2422 39.6467C20.0469 39.4384 19.7734 39.2398 19.4219 39.051C19.0703 38.8622 18.6243 38.6702 18.084 38.4749C17.498 38.2665 16.9674 38.0354 16.4922 37.7815C16.0169 37.5211 15.61 37.2249 15.2715 36.8928C14.9395 36.5608 14.6823 36.1799 14.5 35.7502C14.3177 35.3206 14.2266 34.829 14.2266 34.2756C14.2266 33.7222 14.321 33.2112 14.5098 32.7424C14.7051 32.2737 14.9785 31.8668 15.3301 31.5217C15.6882 31.1702 16.1178 30.8967 16.6191 30.7014C17.1204 30.5061 17.6803 30.4084 18.2988 30.4084C19.2233 30.4084 20.0013 30.6135 20.6328 31.0237C21.2708 31.4273 21.7526 31.9579 22.0781 32.6155C22.4036 33.2665 22.5664 33.9631 22.5664 34.7053H20.7695C20.7695 34.1715 20.6816 33.6995 20.5059 33.2893C20.3366 32.8726 20.0697 32.5471 19.7051 32.3127C19.347 32.0719 18.8783 31.9514 18.2988 31.9514C17.778 31.9514 17.3483 32.0523 17.0098 32.2542C16.6777 32.456 16.4303 32.7294 16.2676 33.0745C16.1113 33.4195 16.0332 33.8134 16.0332 34.2561C16.0332 34.5556 16.0853 34.829 16.1895 35.0764C16.2936 35.3173 16.4531 35.5419 16.668 35.7502C16.8893 35.9586 17.1628 36.1506 17.4883 36.3264C17.8203 36.5022 18.2109 36.6715 18.6602 36.8342C19.3568 37.0621 19.9525 37.316 20.4473 37.5959C20.9421 37.8759 21.3457 38.1917 21.6582 38.5432C21.9707 38.8883 22.1986 39.2821 22.3418 39.7249C22.4915 40.1611 22.5664 40.6558 22.5664 41.2092C22.5664 41.7887 22.4688 42.3127 22.2734 42.7815C22.0846 43.2502 21.8079 43.6506 21.4434 43.9827C21.0788 44.3147 20.6393 44.5719 20.125 44.7542C19.6107 44.9299 19.0312 45.0178 18.3867 45.0178C17.8268 45.0178 17.2767 44.9267 16.7363 44.7444C16.2025 44.5621 15.7174 44.2887 15.2812 43.9241C14.8451 43.5595 14.4967 43.1103 14.2363 42.5764C13.9759 42.0361 13.8457 41.4111 13.8457 40.7014H15.6426C15.6426 41.1897 15.7142 41.6096 15.8574 41.9612C16.0007 42.3062 16.1992 42.5927 16.4531 42.8206C16.707 43.0484 16.9967 43.2177 17.3223 43.3284C17.6543 43.4325 18.0091 43.4846 18.3867 43.4846C18.9076 43.4846 19.3438 43.3935 19.6953 43.2112C20.0534 43.0289 20.3203 42.7685 20.4961 42.4299C20.6784 42.0914 20.7695 41.691 20.7695 41.2288ZM29.4902 30.6038V44.8225H27.7129V30.6038H29.4902ZM33.2305 30.6038V32.1467H23.9824V30.6038H33.2305ZM38.6797 40.5256L40.9551 30.6038H42.2344L41.5605 34.4612L39.0898 44.8225H37.8105L38.6797 40.5256ZM36.4336 30.6038L38.2109 40.3303L38.7383 44.8225H37.4785L34.6465 30.6038H36.4336ZM45.1348 40.3206L46.873 30.6038H48.6602L45.8379 44.8225H44.5781L45.1348 40.3206ZM42.4395 30.6038L44.6465 40.5256L45.4961 44.8225H44.2168L41.8535 34.4612L41.1797 30.6038H42.4395ZM52.5957 30.6038V44.8225H50.7988V30.6038H52.5957ZM65.0176 30.6038V44.8225H63.2109L57.5176 33.8557V44.8225H55.7207V30.6038H57.5176L63.2402 41.5999V30.6038H65.0176ZM71.3457 44.8225H68.9238L68.9434 43.2893H71.3457C72.1986 43.2893 72.8919 43.1265 73.4258 42.801C73.9596 42.469 74.3535 41.9807 74.6074 41.3362C74.8613 40.6851 74.9883 39.8811 74.9883 38.9241V36.4924C74.9883 35.7372 74.9167 35.0862 74.7734 34.5393C74.6302 33.9924 74.4154 33.5432 74.1289 33.1917C73.8424 32.8401 73.4811 32.5797 73.0449 32.4104C72.6087 32.2346 72.0977 32.1467 71.5117 32.1467H68.875V30.6038H71.5117C72.3125 30.6038 73.0352 30.7307 73.6797 30.9846C74.3242 31.232 74.8776 31.6064 75.3398 32.1077C75.8021 32.6025 76.1536 33.2177 76.3945 33.9534C76.6419 34.689 76.7656 35.5419 76.7656 36.512V38.9241C76.7656 39.8941 76.6419 40.747 76.3945 41.4827C76.1536 42.2183 75.7988 42.8336 75.3301 43.3284C74.8613 43.8232 74.2917 44.1975 73.6211 44.4514C72.957 44.6988 72.1986 44.8225 71.3457 44.8225ZM69.9199 30.6038V44.8225H68.123V30.6038H69.9199Z" fill="url(#paint6_linear_528_16)"/>
<defs>
<linearGradient id="paint0_linear_528_16" x1="24.5" y1="7" x2="24.5" y2="22" gradientUnits="userSpaceOnUse">
<stop offset="0.541667" stop-color="#C3AB7A"/>
<stop offset="1" stop-color="#48402F" stop-opacity="0.5"/>
</linearGradient>
<linearGradient id="paint1_linear_528_16" x1="54.5" y1="7" x2="54.5" y2="22" gradientUnits="userSpaceOnUse">
<stop offset="0.541667" stop-color="#C3AB7A"/>
<stop offset="1" stop-color="#48402F" stop-opacity="0.5"/>
</linearGradient>
<linearGradient id="paint2_linear_528_16" x1="39.5" y1="0" x2="39.5" y2="15" gradientUnits="userSpaceOnUse">
<stop offset="0.541667" stop-color="#C3AB7A"/>
<stop offset="1" stop-color="#48402F" stop-opacity="0.5"/>
</linearGradient>
<linearGradient id="paint3_linear_528_16" x1="39.4002" y1="23.0729" x2="39.4002" y2="24.0729" gradientUnits="userSpaceOnUse">
<stop offset="0.588542" stop-color="#C3AB7A"/>
<stop offset="1" stop-color="#48402F" stop-opacity="0.4"/>
</linearGradient>
<linearGradient id="paint4_linear_528_16" x1="38.8182" y1="51" x2="38.8182" y2="52" gradientUnits="userSpaceOnUse">
<stop offset="0.588542" stop-color="#C3AB7A"/>
<stop offset="1" stop-color="#48402F" stop-opacity="0.4"/>
</linearGradient>
<linearGradient id="paint5_linear_528_16" x1="39" y1="58" x2="39" y2="59" gradientUnits="userSpaceOnUse">
<stop offset="0.588542" stop-color="#C3AB7A"/>
<stop offset="1" stop-color="#48402F" stop-opacity="0.4"/>
</linearGradient>
<linearGradient id="paint6_linear_528_16" x1="39.5" y1="22.8225" x2="39.5" y2="53.8189" gradientUnits="userSpaceOnUse">
<stop offset="0.359375" stop-color="#CDB481"/>
<stop offset="1" stop-color="#48402F" stop-opacity="0.5"/>
</linearGradient>
</defs>
</svg>
