<svg width="79" height="67" viewBox="0 0 79 67" fill="none" xmlns="http://www.w3.org/2000/svg">
<path d="M22.6051 7L24.0881 11.9801H28.887L25.0046 15.0579L26.4875 20.038L22.6051 16.9601L18.7227 20.038L20.2057 15.0579L16.3233 11.9801H21.1222L22.6051 7Z" fill="url(#paint0_linear_81_21)"/>
<path d="M39.6051 0L41.0881 4.98006H45.887L42.0046 8.0579L43.4875 13.038L39.6051 9.96011L35.7227 13.038L37.2057 8.0579L33.3233 4.98006H38.1222L39.6051 0Z" fill="url(#paint1_linear_81_21)"/>
<path d="M56.6051 7L58.0881 11.9801H62.887L59.0046 15.0579L60.4875 20.038L56.6051 16.9601L52.7227 20.038L54.2057 15.0579L50.3233 11.9801H55.1222L56.6051 7Z" fill="url(#paint2_linear_81_21)"/>
<path d="M5.58191 25.2343H73.2184" stroke="url(#paint3_linear_81_21)" stroke-width="3"/>
<path d="M5.31775 53.7747H72.9542" stroke="url(#paint4_linear_81_21)" stroke-width="3"/>
<path d="M27 65H53" stroke="url(#paint5_linear_81_21)" stroke-width="3"/>
<path d="M11.7656 37.6602V40.1309C11.7656 41.1335 11.6549 42.0156 11.4336 42.7773C11.2188 43.5326 10.903 44.1641 10.4863 44.6719C10.0697 45.1797 9.56836 45.5605 8.98242 45.8145C8.39648 46.0684 7.73568 46.1953 7 46.1953C6.29036 46.1953 5.64258 46.0684 5.05664 45.8145C4.4707 45.5605 3.96615 45.1797 3.54297 44.6719C3.11979 44.1641 2.79102 43.5326 2.55664 42.7773C2.32878 42.0156 2.21484 41.1335 2.21484 40.1309V37.6602C2.21484 36.6576 2.32878 35.7786 2.55664 35.0234C2.78451 34.2617 3.11003 33.627 3.5332 33.1191C3.95638 32.6113 4.46094 32.2305 5.04688 31.9766C5.63281 31.7161 6.2806 31.5859 6.99023 31.5859C7.72591 31.5859 8.38672 31.7161 8.97266 31.9766C9.5651 32.2305 10.0664 32.6113 10.4766 33.1191C10.8932 33.627 11.2122 34.2617 11.4336 35.0234C11.6549 35.7786 11.7656 36.6576 11.7656 37.6602ZM9.98828 40.1309V37.6406C9.98828 36.8594 9.92318 36.1888 9.79297 35.6289C9.66276 35.0625 9.4707 34.6003 9.2168 34.2422C8.96289 33.8841 8.65039 33.6204 8.2793 33.4512C7.9082 33.2754 7.47852 33.1875 6.99023 33.1875C6.52799 33.1875 6.11133 33.2754 5.74023 33.4512C5.37565 33.6204 5.06315 33.8841 4.80273 34.2422C4.54232 34.6003 4.34049 35.0625 4.19727 35.6289C4.06055 36.1888 3.99219 36.8594 3.99219 37.6406V40.1309C3.99219 40.9186 4.06055 41.5957 4.19727 42.1621C4.34049 42.722 4.54232 43.1842 4.80273 43.5488C5.06966 43.9069 5.38867 44.1738 5.75977 44.3496C6.13086 44.5189 6.54427 44.6035 7 44.6035C7.48828 44.6035 7.91797 44.5189 8.28906 44.3496C8.66667 44.1738 8.97917 43.9069 9.22656 43.5488C9.48047 43.1842 9.66927 42.722 9.79297 42.1621C9.92318 41.5957 9.98828 40.9186 9.98828 40.1309ZM20.7695 42.4062C20.7695 42.0742 20.7305 41.7812 20.6523 41.5273C20.5742 41.2669 20.4375 41.0326 20.2422 40.8242C20.0469 40.6159 19.7734 40.4173 19.4219 40.2285C19.0703 40.0397 18.6243 39.8477 18.084 39.6523C17.498 39.444 16.9674 39.2129 16.4922 38.959C16.0169 38.6986 15.61 38.4023 15.2715 38.0703C14.9395 37.7383 14.6823 37.3574 14.5 36.9277C14.3177 36.498 14.2266 36.0065 14.2266 35.4531C14.2266 34.8997 14.321 34.3887 14.5098 33.9199C14.7051 33.4512 14.9785 33.0443 15.3301 32.6992C15.6882 32.3477 16.1178 32.0742 16.6191 31.8789C17.1204 31.6836 17.6803 31.5859 18.2988 31.5859C19.2233 31.5859 20.0013 31.791 20.6328 32.2012C21.2708 32.6048 21.7526 33.1354 22.0781 33.793C22.4036 34.444 22.5664 35.1406 22.5664 35.8828H20.7695C20.7695 35.349 20.6816 34.877 20.5059 34.4668C20.3366 34.0501 20.0697 33.7246 19.7051 33.4902C19.347 33.2493 18.8783 33.1289 18.2988 33.1289C17.778 33.1289 17.3483 33.2298 17.0098 33.4316C16.6777 33.6335 16.4303 33.9069 16.2676 34.252C16.1113 34.597 16.0332 34.9909 16.0332 35.4336C16.0332 35.7331 16.0853 36.0065 16.1895 36.2539C16.2936 36.4948 16.4531 36.7194 16.668 36.9277C16.8893 37.1361 17.1628 37.3281 17.4883 37.5039C17.8203 37.6797 18.2109 37.849 18.6602 38.0117C19.3568 38.2396 19.9525 38.4935 20.4473 38.7734C20.9421 39.0534 21.3457 39.3691 21.6582 39.7207C21.9707 40.0658 22.1986 40.4596 22.3418 40.9023C22.4915 41.3385 22.5664 41.8333 22.5664 42.3867C22.5664 42.9661 22.4688 43.4902 22.2734 43.959C22.0846 44.4277 21.8079 44.8281 21.4434 45.1602C21.0788 45.4922 20.6393 45.7493 20.125 45.9316C19.6107 46.1074 19.0312 46.1953 18.3867 46.1953C17.8268 46.1953 17.2767 46.1042 16.7363 45.9219C16.2025 45.7396 15.7174 45.4661 15.2812 45.1016C14.8451 44.737 14.4967 44.2878 14.2363 43.7539C13.9759 43.2135 13.8457 42.5885 13.8457 41.8789H15.6426C15.6426 42.3672 15.7142 42.7871 15.8574 43.1387C16.0007 43.4837 16.1992 43.7702 16.4531 43.998C16.707 44.2259 16.9967 44.3952 17.3223 44.5059C17.6543 44.61 18.0091 44.6621 18.3867 44.6621C18.9076 44.6621 19.3438 44.571 19.6953 44.3887C20.0534 44.2064 20.3203 43.946 20.4961 43.6074C20.6784 43.2689 20.7695 42.8685 20.7695 42.4062ZM29.4902 31.7812V46H27.7129V31.7812H29.4902ZM33.2305 31.7812V33.3242H23.9824V31.7812H33.2305ZM38.6797 41.7031L40.9551 31.7812H42.2344L41.5605 35.6387L39.0898 46H37.8105L38.6797 41.7031ZM36.4336 31.7812L38.2109 41.5078L38.7383 46H37.4785L34.6465 31.7812H36.4336ZM45.1348 41.498L46.873 31.7812H48.6602L45.8379 46H44.5781L45.1348 41.498ZM42.4395 31.7812L44.6465 41.7031L45.4961 46H44.2168L41.8535 35.6387L41.1797 31.7812H42.4395ZM52.5957 31.7812V46H50.7988V31.7812H52.5957ZM65.0176 31.7812V46H63.2109L57.5176 35.0332V46H55.7207V31.7812H57.5176L63.2402 42.7773V31.7812H65.0176ZM71.3457 46H68.9238L68.9434 44.4668H71.3457C72.1986 44.4668 72.8919 44.304 73.4258 43.9785C73.9596 43.6465 74.3535 43.1582 74.6074 42.5137C74.8613 41.8626 74.9883 41.0586 74.9883 40.1016V37.6699C74.9883 36.9147 74.9167 36.2637 74.7734 35.7168C74.6302 35.1699 74.4154 34.7207 74.1289 34.3691C73.8424 34.0176 73.4811 33.7572 73.0449 33.5879C72.6087 33.4121 72.0977 33.3242 71.5117 33.3242H68.875V31.7812H71.5117C72.3125 31.7812 73.0352 31.9082 73.6797 32.1621C74.3242 32.4095 74.8776 32.7839 75.3398 33.2852C75.8021 33.7799 76.1536 34.3952 76.3945 35.1309C76.6419 35.8665 76.7656 36.7194 76.7656 37.6895V40.1016C76.7656 41.0716 76.6419 41.9245 76.3945 42.6602C76.1536 43.3958 75.7988 44.0111 75.3301 44.5059C74.8613 45.0007 74.2917 45.375 73.6211 45.6289C72.957 45.8763 72.1986 46 71.3457 46ZM69.9199 31.7812V46H68.123V31.7812H69.9199Z" fill="url(#paint6_linear_81_21)"/>
<defs>
<linearGradient id="paint0_linear_81_21" x1="22.6051" y1="7" x2="22.6051" y2="21.4144" gradientUnits="userSpaceOnUse">
<stop offset="0.276042" stop-color="white"/>
<stop offset="1" stop-color="white" stop-opacity="0"/>
</linearGradient>
<linearGradient id="paint1_linear_81_21" x1="39.6051" y1="0" x2="39.6051" y2="14.4144" gradientUnits="userSpaceOnUse">
<stop offset="0.276042" stop-color="white"/>
<stop offset="1" stop-color="white" stop-opacity="0"/>
</linearGradient>
<linearGradient id="paint2_linear_81_21" x1="56.6051" y1="7" x2="56.6051" y2="21.4144" gradientUnits="userSpaceOnUse">
<stop offset="0.276042" stop-color="white"/>
<stop offset="1" stop-color="white" stop-opacity="0"/>
</linearGradient>
<linearGradient id="paint3_linear_81_21" x1="39.4002" y1="25.2343" x2="39.4002" y2="26.2343" gradientUnits="userSpaceOnUse">
<stop stop-color="white"/>
<stop offset="1" stop-color="#D2D2D2"/>
</linearGradient>
<linearGradient id="paint4_linear_81_21" x1="39.136" y1="53.7747" x2="39.136" y2="54.7747" gradientUnits="userSpaceOnUse">
<stop stop-color="white"/>
<stop offset="1" stop-color="#D2D2D2"/>
</linearGradient>
<linearGradient id="paint5_linear_81_21" x1="40" y1="65" x2="40" y2="66" gradientUnits="userSpaceOnUse">
<stop stop-color="white"/>
<stop offset="1" stop-color="#D2D2D2"/>
</linearGradient>
<linearGradient id="paint6_linear_81_21" x1="39.5" y1="25" x2="39.5" y2="54" gradientUnits="userSpaceOnUse">
<stop offset="0.46875" stop-color="white"/>
<stop offset="1" stop-color="white" stop-opacity="0"/>
</linearGradient>
</defs>
</svg>
