<svg width="50" height="50" viewBox="0 0 50 50" fill="none" xmlns="http://www.w3.org/2000/svg">
<path d="M25 0C11.25 0 0 11.25 0 25C0 38.75 11.25 50 25 50C38.75 50 50 38.75 50 25C50 11.25 38.75 0 25 0ZM25 48.3333C12.1667 48.3333 1.6667 37.8333 1.6667 25C1.6667 12.1667 12.1667 1.6667 25 1.6667C37.8333 1.6667 48.3333 12.1667 48.3333 25C48.3333 37.8333 37.8333 48.3333 25 48.3333Z" fill="#C3AB7A"/>
<path d="M26.3333 8.33325H21.6666C20.2499 8.33325 19.1666 9.41655 19.1666 10.8333V40C19.1666 41.4166 20.2499 42.5 21.6666 42.5C23.0833 42.5 24.1666 41.4166 24.1666 40V28.3333H26.6666C29.4166 28.3333 31.9166 27.25 33.8333 25.3333C35.6666 23.4166 36.75 20.8333 36.6666 18.1666C36.5 12.75 31.9167 8.33325 26.3333 8.33325ZM32.5833 24.1667C31 25.75 28.9166 26.6666 26.6666 26.6666H23.3333C22.8333 26.6666 22.5 27 22.5 27.5V40C22.5 40.5 22.1667 40.8333 21.6667 40.8333C21.1667 40.8333 20.8334 40.5 20.8334 40V10.8333C20.8334 10.3333 21.2501 9.99995 21.6667 9.99995H26.3334C31.0834 9.99995 34.9167 13.6666 35.0001 18.1666C35 20.4166 34.1667 22.5833 32.5833 24.1667Z" fill="#C3AB7A"/>
<path d="M26.6667 11.6667H23.3334C22.8334 11.6667 22.5001 12 22.5001 12.5V24.1667C22.5001 24.6667 22.8334 25 23.3334 25H26.6667C30.3334 25 33.3334 22 33.3334 18.3333C33.3333 14.6667 30.3333 11.6667 26.6667 11.6667ZM26.6667 23.3333H24.1667V13.3333H26.6667C29.4167 13.3333 31.6667 15.5833 31.6667 18.3333C31.6667 21.0833 29.4167 23.3333 26.6667 23.3333Z" fill="#C3AB7A"/>
</svg>
