<svg width="50" height="50" viewBox="0 0 50 50" fill="none" xmlns="http://www.w3.org/2000/svg">
<path d="M25 0C11.25 0 0 11.25 0 25C0 38.75 11.25 50 25 50C38.75 50 50 38.75 50 25C50 11.25 38.75 0 25 0ZM25 48.3333C12.1667 48.3333 1.6667 37.8333 1.6667 25C1.6667 12.1667 12.1667 1.6667 25 1.6667C37.8333 1.6667 48.3333 12.1667 48.3333 25C48.3333 37.8333 37.8333 48.3333 25 48.3333Z" fill="#C3AB7A"/>
<g clip-path="url(#clip0_475_671)">
<path d="M25.1146 19.8753C25.1146 20.1821 24.8487 20.4307 24.5209 20.4307C20.486 20.4307 17.2033 23.5015 17.2033 27.2761C17.2033 27.5828 16.9375 27.8315 16.6096 27.8315C16.2818 27.8315 16.016 27.5828 16.016 27.2761C16.016 22.8891 19.8313 19.32 24.5209 19.32C24.8488 19.32 25.1146 19.5686 25.1146 19.8753ZM40.9379 19.1358C39.1981 15.8603 36.2403 13.3142 32.6096 11.9662C32.305 11.8531 31.9597 11.9924 31.8388 12.2775C31.7178 12.5626 31.8668 12.8854 32.1715 12.9986C35.5296 14.2453 38.2652 16.6004 39.8745 19.63C39.9782 19.8253 40.1884 19.9384 40.4066 19.9384C40.4954 19.9384 40.5855 19.9196 40.6704 19.8802C40.9641 19.7439 41.0838 19.4105 40.9379 19.1358ZM36.623 19.7079C36.7368 19.8711 36.9269 19.9598 37.1207 19.9598C37.232 19.9598 37.3445 19.9305 37.4446 19.8694C37.7192 19.7017 37.7965 19.3575 37.6173 19.1007C36.3805 17.3284 34.6645 15.8853 32.6546 14.9272C32.3626 14.7879 32.005 14.8966 31.8561 15.1699C31.7073 15.4432 31.8235 15.7776 32.1156 15.9169C33.9409 16.787 35.4995 18.0979 36.623 19.7079ZM40.0429 34.327C40.0429 35.4244 39.0886 36.3172 37.9155 36.3172H12.1273C10.9543 36.3172 10 35.4244 10 34.327C10 33.2296 10.9543 32.3368 12.1273 32.3368H18.655V31.148H12.7512C12.4233 31.148 12.1575 30.8993 12.1575 30.5926V27.723C12.1575 24.5213 13.4993 21.5028 15.9358 19.2235C18.2308 17.0766 21.2272 15.8382 24.4277 15.7017V12.6632H24.2546C23.0816 12.6632 22.1272 11.7704 22.1272 10.6731C22.1272 9.57564 23.0816 8.68286 24.2546 8.68286H25.7884C26.9614 8.68286 27.9158 9.57564 27.9158 10.673C27.9158 11.7704 26.9614 12.6632 25.7884 12.6632H25.6151V15.7016C28.8156 15.8381 31.812 17.0766 34.107 19.2235C36.5435 21.5028 37.8853 24.5213 37.8853 27.7229V30.5926C37.8853 30.8993 37.6195 31.1479 37.2916 31.1479H31.3879V32.3367H37.9155C39.0885 32.3368 40.0429 33.2296 40.0429 34.327ZM25.0213 11.5525H25.7883C26.3066 11.5525 26.7283 11.158 26.7283 10.6731C26.7283 10.1882 26.3066 9.79363 25.7883 9.79363H24.2545C23.7362 9.79363 23.3145 10.1882 23.3145 10.673C23.3145 11.1579 23.7362 11.5525 24.2545 11.5525H25.0213ZM30.7942 30.0373H36.6979V27.723C36.6979 21.6999 31.4599 16.7998 25.0214 16.7998C18.583 16.7998 13.345 21.6999 13.345 27.723V30.0373H30.7942ZM19.8423 31.148V32.3368H30.2004V31.148H19.8423ZM38.8555 34.327C38.8555 33.8421 38.4338 33.4476 37.9155 33.4476H12.1273C11.609 33.4476 11.1874 33.8421 11.1874 34.327C11.1874 34.8119 11.609 35.2064 12.1273 35.2064H37.9155C38.4338 35.2064 38.8555 34.8119 38.8555 34.327Z" fill="#C3AB7A"/>
</g>
<defs>
<clipPath id="clip0_475_671">
<rect width="31" height="29" fill="white" transform="translate(10 8)"/>
</clipPath>
</defs>
</svg>
