<svg width="50" height="50" viewBox="0 0 50 50" fill="none" xmlns="http://www.w3.org/2000/svg">
<path d="M25 0C11.25 0 0 11.25 0 25C0 38.75 11.25 50 25 50C38.75 50 50 38.75 50 25C50 11.25 38.75 0 25 0ZM25 48.3333C12.1667 48.3333 1.6667 37.8333 1.6667 25C1.6667 12.1667 12.1667 1.6667 25 1.6667C37.8333 1.6667 48.3333 12.1667 48.3333 25C48.3333 37.8333 37.8333 48.3333 25 48.3333Z" fill="#C3AB7A"/>
<g clip-path="url(#clip0_475_575)">
<path d="M42.8681 31.2714C42.6642 30.8408 42.2608 30.5741 41.815 30.5741H41.1426C40.8577 22.4439 35.3939 15.7338 28.2372 14.2271C28.2476 14.1198 28.2636 14.0131 28.2636 13.9071C28.2636 12.0691 26.8863 10.5737 25.1934 10.5737C23.5004 10.5737 22.1231 12.0691 22.1231 13.9071C22.1231 14.0131 22.1385 14.1205 22.1495 14.2271C14.9922 15.7332 9.52843 22.4439 9.24351 30.5741H9.18518C8.73938 30.5741 8.33595 30.8408 8.13209 31.2714C7.92823 31.7021 7.96261 32.2134 8.22174 32.6074L9.60949 34.7168C10.3746 35.8802 11.6174 36.5742 12.9333 36.5742H38.0674C39.3833 36.5742 40.6262 35.8802 41.3913 34.7168L42.7796 32.6074C43.0381 32.2134 43.0719 31.7014 42.8681 31.2714ZM23.3549 14.0218C23.3524 13.9831 23.3512 13.9445 23.3512 13.9071C23.3512 12.8044 24.1777 11.9071 25.1934 11.9071C26.209 11.9071 27.0355 12.8044 27.0355 13.9071C27.0355 13.9451 27.0343 13.9831 27.0318 14.0218C27.0029 14.0185 26.9741 14.0171 26.9458 14.0138C26.7346 13.9885 26.5222 13.9705 26.3085 13.9545C26.2299 13.9485 26.1519 13.9398 26.0733 13.9351C25.781 13.9171 25.4881 13.9071 25.1934 13.9071C24.8986 13.9071 24.6051 13.9171 24.314 13.9345C24.2354 13.9391 24.1575 13.9478 24.0789 13.9538C23.8652 13.9698 23.6527 13.9885 23.4415 14.0131C23.4126 14.0171 23.3838 14.0178 23.3549 14.0218ZM22.9865 15.4198C23.315 15.3665 23.6466 15.3278 23.9782 15.2985C24.0457 15.2925 24.1132 15.2871 24.1808 15.2825C24.855 15.2331 25.5323 15.2331 26.2065 15.2825C26.2741 15.2878 26.3416 15.2931 26.4092 15.2985C26.7408 15.3278 27.0717 15.3665 27.4009 15.4198C34.2849 16.5472 39.6253 22.8653 39.9176 30.5741H10.4685C10.7614 22.8653 16.1012 16.5472 22.9865 15.4198ZM40.3916 33.9415C39.8562 34.7548 38.9873 35.2408 38.0668 35.2408H12.9333C12.0129 35.2408 11.144 34.7548 10.6085 33.9421L9.26992 31.9074H41.1586H41.7302L40.3916 33.9415Z" fill="#C3AB7A"/>
<path d="M25.1847 16.5739C24.1758 16.5739 23.1718 16.6945 22.2004 16.9319C21.8695 17.0125 21.6619 17.3692 21.7362 17.7285C21.8007 18.0386 22.0543 18.2486 22.3349 18.2486C22.3797 18.2486 22.4252 18.2432 22.4706 18.2326C23.3536 18.0166 24.2667 17.9072 25.1847 17.9072C25.1871 17.9072 25.1896 17.9072 25.1927 17.9072C25.5316 17.9072 25.8067 17.6092 25.8067 17.2412C25.8073 16.8699 25.5347 16.5612 25.1847 16.5739Z" fill="#C3AB7A"/>
<path d="M18.5309 18.5065C15.3354 20.5619 13.0094 24.2806 12.3082 28.4541C12.2474 28.8167 12.4684 29.1634 12.8025 29.2294C12.8393 29.2374 12.8761 29.2407 12.913 29.2407C13.204 29.2407 13.4626 29.0154 13.5166 28.6941C14.1546 24.8953 16.2632 21.5153 19.1572 19.6539C19.4489 19.4666 19.5453 19.0572 19.3727 18.7405C19.199 18.4239 18.8232 18.3192 18.5309 18.5065Z" fill="#C3AB7A"/>
</g>
<defs>
<clipPath id="clip0_475_575">
<rect width="35" height="38" fill="white" transform="translate(8 4.57361)"/>
</clipPath>
</defs>
</svg>
