<svg width="50" height="50" viewBox="0 0 50 50" fill="none" xmlns="http://www.w3.org/2000/svg">
<g clip-path="url(#clip0_475_544)">
<path d="M42.15 17.3736H36.3681L28.9712 8.84398C29.1106 8.50742 29.2 8.15067 29.2 7.77361C29.2 6.0088 27.5406 4.57361 25.5 4.57361C23.4594 4.57361 21.8 6.0088 21.8 7.77361C21.8 8.15067 21.8894 8.50748 22.0288 8.84398L14.6319 17.3736H8.85C7.82816 17.3736 7 18.0899 7 18.9736V34.9736C7 35.8574 7.82816 36.5736 8.85 36.5736H42.15C43.1718 36.5736 44 35.8574 44 34.9736V18.9736C44 18.0899 43.1718 17.3736 42.15 17.3736ZM25.5 6.17361C26.52 6.17361 27.35 6.89148 27.35 7.77361C27.35 8.65573 26.52 9.37361 25.5 9.37361C24.48 9.37361 23.65 8.65573 23.65 7.77361C23.65 6.89148 24.48 6.17361 25.5 6.17361ZM23.1456 10.2216C23.7875 10.684 24.6015 10.9736 25.5 10.9736C26.3985 10.9736 27.2125 10.684 27.8544 10.2216L34.0569 17.3736H16.9431L23.1456 10.2216ZM42.15 34.9736H8.85V18.9736H42.15V34.9736Z" fill="#C3AB7A"/>
<path d="M38.45 20.5736H12.55C11.5282 20.5736 10.7 21.2899 10.7 22.1736V31.7736C10.7 32.6574 11.5282 33.3736 12.55 33.3736H38.45C39.4718 33.3736 40.3 32.6574 40.3 31.7736V22.1736C40.3 21.2899 39.4718 20.5736 38.45 20.5736ZM38.45 31.7736H12.55V22.1736H38.45V31.7736Z" fill="#C3AB7A"/>
<path d="M21.5669 26.725C21.1321 26.3827 20.4495 26.1325 19.4757 25.9613C18.7437 25.8338 18.465 25.6893 18.3608 25.612C18.2837 25.556 18.1955 25.461 18.1955 25.2285C18.1955 25.0675 18.2541 24.9731 18.4021 24.8904C18.5988 24.78 18.8998 24.724 19.2938 24.724C19.6398 24.724 19.8957 24.7763 20.0492 24.8755C20.1917 24.9698 20.2885 25.1422 20.3329 25.3651C20.3625 25.5768 20.4827 25.7598 20.6714 25.8798C20.8157 25.9726 20.9859 26.0238 21.2542 26.0238C21.2696 26.0238 21.285 26.0238 21.3004 26.0238C21.5446 25.9918 21.7488 25.8787 21.8517 25.7352C21.9541 25.6179 22.0633 25.4179 22.0109 25.1283C21.919 24.6408 21.6896 24.2387 21.3245 23.9304C20.8466 23.5298 20.1756 23.3267 19.3308 23.3267C18.5113 23.3267 17.844 23.4829 17.3384 23.7955C16.8019 24.14 16.5182 24.6408 16.5182 25.244C16.5182 25.8573 16.7957 26.3672 17.3279 26.7219C17.7226 26.9768 18.3152 27.1827 19.1452 27.3523C20.0511 27.5304 20.3422 27.7123 20.4254 27.7827C20.5556 27.893 20.5833 28.1192 20.5833 28.2904C20.5833 28.4147 20.5426 28.5613 20.2362 28.7107C19.9772 28.8413 19.6861 28.9043 19.3494 28.9043C18.9061 28.9043 18.5705 28.8365 18.372 28.7027C18.1734 28.5747 18.0624 28.3533 18.0304 28.0088C17.9971 27.7496 17.854 27.5901 17.7424 27.5032C17.5951 27.3885 17.4101 27.3266 17.1443 27.3266C17.1399 27.3266 17.135 27.3266 17.1307 27.3266C16.9229 27.3405 16.7379 27.414 16.6022 27.5335C16.4191 27.6903 16.3359 27.9047 16.3666 28.1202C16.4406 28.8626 16.7632 29.4263 17.3169 29.7922C17.814 30.1298 18.504 30.301 19.3673 30.301C20.1424 30.301 20.8035 30.1309 21.3264 29.797C21.9382 29.4168 22.2613 28.876 22.2613 28.2354C22.2613 27.5965 22.0276 27.0877 21.5669 26.725Z" fill="#C3AB7A"/>
<path d="M28.0382 24.1203C27.5868 23.682 26.9794 23.4601 26.2332 23.4601H24.4356C23.8818 23.4601 23.5488 23.6771 23.3626 23.8633C23.1406 24.09 23.0228 24.378 23.0228 24.6974V29.5726C23.0228 29.7795 23.1067 29.9614 23.2874 30.1171C23.4434 30.2382 23.6408 30.3022 23.8572 30.3022C24.0675 30.3022 24.2617 30.2382 24.4171 30.1176C24.5941 29.98 24.6915 29.7865 24.6915 29.5726V27.6462H26.2326C26.9812 27.6462 27.5904 27.4206 28.0363 26.9795C28.4427 26.5891 28.6487 26.1102 28.6487 25.5571C28.6487 24.9939 28.4427 24.5096 28.0382 24.1203ZM26.7673 26.0499C26.676 26.139 26.5132 26.2568 26.1611 26.2568H24.6922L24.6929 24.8568H26.1605C26.5126 24.8568 26.6754 24.9747 26.7654 25.0621C26.9048 25.1981 26.9696 25.3581 26.9696 25.5645C26.9701 25.7608 26.9054 25.9155 26.7673 26.0499Z" fill="#C3AB7A"/>
<path d="M34.5878 29.3065L32.3512 24.0179C32.2673 23.8061 32.1292 23.6376 31.9393 23.515C31.7562 23.3971 31.5415 23.3352 31.3208 23.3352C31.0876 23.3352 30.8675 23.3971 30.6813 23.5165C30.4944 23.6376 30.3563 23.8061 30.2755 24.0104L28.058 29.2771C27.9489 29.4904 27.9494 29.7139 28.0599 29.9053C28.1628 30.0819 28.3355 30.2125 28.5477 30.2717L28.7166 30.3075H28.8054L29.0644 30.2792L29.1866 30.2238C29.3808 30.1347 29.5288 29.9901 29.6201 29.7923L30.2552 28.2866H32.3759L33.0098 29.8056C33.0919 29.9843 33.2312 30.1261 33.4705 30.2408C33.5778 30.2808 33.6918 30.301 33.8066 30.301L33.9916 30.2871L34.0755 30.2637C34.2968 30.2018 34.4713 30.0675 34.5608 29.8925C34.6563 29.7145 34.668 29.516 34.5878 29.3065ZM30.8404 26.8974L31.314 25.778L31.7839 26.8974H30.8404Z" fill="#C3AB7A"/>
</g>
<path d="M25 0C11.25 0 0 11.25 0 25C0 38.75 11.25 50 25 50C38.75 50 50 38.75 50 25C50 11.25 38.75 0 25 0ZM25 48.3333C12.1667 48.3333 1.6667 37.8333 1.6667 25C1.6667 12.1667 12.1667 1.6667 25 1.6667C37.8333 1.6667 48.3333 12.1667 48.3333 25C48.3333 37.8333 37.8333 48.3333 25 48.3333Z" fill="#C3AB7A"/>
<defs>
<clipPath id="clip0_475_544">
<rect width="37" height="32" fill="white" transform="translate(7 4.57361)"/>
</clipPath>
</defs>
</svg>
