<svg width="22" height="22" viewBox="0 0 22 22" fill="none" xmlns="http://www.w3.org/2000/svg">
<g clip-path="url(#clip0_461_93)">
<path d="M10.9978 1.76C11.2544 1.94335 11.4744 1.98 12.1344 2.01665C14.0778 2.12665 15.2878 2.56665 16.6444 3.55665C18.3311 4.76665 19.3944 6.49 19.7611 8.61665C19.8711 9.16665 19.9077 9.6433 19.9444 10.34C19.9811 10.8533 19.9811 11.0367 20.0911 11.22C20.2744 11.5133 20.5677 11.6967 20.8977 11.7333C20.9344 11.7333 20.9711 11.7333 21.0077 11.7333C21.3011 11.7333 21.5944 11.5867 21.7411 11.33C21.9977 11.0367 21.9977 10.78 21.9611 10.1933C21.8877 8.3967 21.5211 6.7467 20.7877 5.35335C20.2744 4.36335 19.7977 3.70335 18.9177 2.86C18.0011 1.98 17.3044 1.46665 16.2044 0.953348C15.0677 0.403348 14.261 0.22 13.051 0.0733477C12.8311 0.0366523 12.3911 0 12.0611 0C11.4745 0 11.2178 0 10.9611 0.256652C10.7411 0.44 10.6311 0.733305 10.6311 1.02665C10.6311 1.32 10.7778 1.57665 10.9978 1.76ZM11.4378 0.806652C11.4744 0.77 11.5111 0.733305 11.7678 0.733305C11.8411 0.733305 11.9144 0.733305 12.0244 0.733305C12.3178 0.733305 12.7578 0.769957 12.9778 0.806652C14.1144 0.953305 14.8478 1.1 15.9111 1.6133C16.9378 2.12665 17.5611 2.56665 18.4411 3.40996C19.2478 4.21661 19.6878 4.8033 20.1645 5.71996C20.8245 7.03996 21.1911 8.54331 21.2645 10.2666C21.2645 10.8166 21.2645 10.8533 21.1911 10.89C21.1545 10.9633 21.0445 10.9633 20.9711 10.9633C20.8978 10.9633 20.7878 10.9267 20.7511 10.8533C20.7145 10.8167 20.7145 10.7433 20.6778 10.3033C20.6411 9.56996 20.6044 9.05665 20.4944 8.46996C20.0544 6.1233 18.9178 4.2533 17.0844 2.9333C15.6178 1.86996 14.2611 1.3933 12.1711 1.2833C11.5477 1.24665 11.5111 1.20996 11.4377 1.1733C11.4011 1.13665 11.3644 1.0633 11.3644 0.989957C11.3644 0.916609 11.4011 0.843348 11.4378 0.806652Z" fill="#F4F2EF"/>
<path d="M17.0111 9.64334C17.0111 10.1567 17.0478 10.6333 17.5611 10.89C17.7078 10.9633 17.8911 11 18.0745 11C18.2211 11 18.4045 10.9633 18.5145 10.89C18.6978 10.8166 18.9178 10.56 18.9911 10.3766C19.1011 10.12 19.0645 9.16665 19.0278 8.91C18.8811 7.73665 18.4778 6.63665 17.8544 5.72C16.6811 4.03334 14.9578 3.04334 12.7211 2.71334C11.9511 2.60334 11.4011 2.56669 11.0711 3.08C10.8144 3.44665 10.8511 3.96 11.1444 4.29C11.4011 4.58334 11.7311 4.62 12.0611 4.65665C12.9411 4.73 13.9311 5.0233 14.5911 5.39C15.3611 5.83 15.9844 6.49 16.4244 7.26C16.7911 7.95665 17.0111 8.8 17.0111 9.64334ZM14.9944 4.76665C14.2244 4.32665 13.1244 4.0333 12.0611 3.96C11.7677 3.96 11.6944 3.88665 11.6577 3.85C11.5844 3.74 11.5844 3.63 11.6577 3.52C11.7311 3.44665 11.7677 3.37334 12.6111 3.48334C14.6644 3.77669 16.2044 4.65669 17.2311 6.16C17.8177 6.96665 18.1844 7.95665 18.2944 9.02C18.3678 9.38665 18.3311 10.01 18.3311 10.12C18.2944 10.1566 18.2211 10.23 18.1844 10.2666C18.1478 10.2666 17.9644 10.2666 17.9278 10.23C17.8544 10.1933 17.7811 10.1566 17.7811 9.64334C17.7811 8.69 17.5245 7.66334 17.0845 6.89334C16.6078 6.01334 15.8744 5.28 14.9944 4.76665Z" fill="#F4F2EF"/>
<path d="M14.9944 6.52665C14.5178 6.05 13.9311 5.75665 13.1611 5.61C12.9777 5.57335 12.6844 5.53665 12.5011 5.53665C12.2077 5.53665 12.0611 5.53665 11.8411 5.64665C11.5844 5.7933 11.4011 6.05 11.3277 6.3433C11.2544 6.63665 11.3644 6.96665 11.5477 7.18665C11.8044 7.4433 12.0244 7.48 12.5011 7.5533C13.3077 7.62665 13.7477 7.91996 14.0044 8.4333C14.1511 8.68996 14.2244 8.9833 14.2611 9.4233C14.2977 9.78996 14.3711 10.0467 14.6644 10.2667C14.8478 10.3767 15.0678 10.45 15.2878 10.45C15.5444 10.45 15.7644 10.3767 15.8744 10.2667C16.2411 9.93665 16.2778 9.49665 16.1678 8.8733C15.9844 7.84665 15.6544 7.11335 14.9944 6.52665ZM15.4344 9.68C15.3611 9.75335 15.1778 9.75335 15.0678 9.68C15.0311 9.64335 14.9944 9.64335 14.9578 9.35C14.9211 8.87335 14.8478 8.50665 14.6644 8.14C14.2978 7.37 13.6378 6.93 12.6111 6.82C12.2077 6.74665 12.1711 6.74665 12.1344 6.67335C12.0978 6.6 12.0978 6.52669 12.0978 6.45335C12.1344 6.38 12.1711 6.30669 12.2444 6.27C12.2811 6.23335 12.2811 6.23335 12.3544 6.23335C12.3911 6.23335 12.4644 6.23335 12.5011 6.23335C12.6844 6.27 12.9411 6.27 13.0511 6.30669C13.6744 6.45335 14.1511 6.67335 14.5544 7.04004C15.0678 7.51669 15.3611 8.10339 15.4711 8.94669C15.5811 9.53335 15.5078 9.60665 15.4344 9.68Z" fill="#F4F2EF"/>
<path d="M21.5944 16.6833C21.3378 16.39 19.7611 15.1433 19.0644 14.6667C18.5144 14.3 17.6344 13.7867 17.2311 13.5667C16.6444 13.2733 16.0211 13.2367 15.4344 13.42C15.3244 13.4567 15.2144 13.4934 15.1411 13.53C14.8477 13.6767 14.6277 13.9334 14.1877 14.4467C13.7477 14.9967 13.6377 15.1067 13.6377 15.1067C13.6011 15.1433 13.5277 15.18 13.4544 15.2167H13.4177C13.0877 15.4 12.5377 15.2533 11.6211 14.8133C10.8511 14.4467 10.1544 13.97 9.38442 13.2733C8.72442 12.6867 8.06442 11.9167 7.69777 11.33C7.18442 10.4866 6.85442 9.53334 6.85442 9.09334C6.85442 8.90999 6.92777 8.65334 7.00107 8.54334L7.03772 8.50669C7.03772 8.50669 7.07438 8.47003 7.11107 8.43334C7.25772 8.32334 7.44107 8.17669 7.62442 8.02999C8.46777 7.36999 8.72442 7.11334 8.87107 6.59999C9.01772 6.12334 8.90773 5.57334 8.50442 4.80334C7.91777 3.66669 6.01107 1.24669 5.24107 0.733339C5.13107 0.623339 4.91107 0.513339 4.76442 0.476687C4.43442 0.330035 3.99442 0.293339 3.70107 0.366687C3.29772 0.440035 2.85772 0.696687 1.90442 1.43003C1.35442 1.79669 0.547768 2.56669 0.327768 2.93338C-0.18558 3.81338 -0.0388846 4.54673 0.401115 5.83003C0.841115 7.04003 1.42777 8.25003 2.12446 9.46003L2.16112 9.53338C2.30777 9.75338 2.45446 10.01 2.60112 10.23L2.63777 10.3034C2.78442 10.5234 2.93112 10.78 3.07777 11L3.33442 11.3667C3.44442 11.5133 3.51777 11.6233 3.62777 11.77C3.81112 12.0267 4.03112 12.2834 4.21442 12.54C6.34107 15.29 8.79777 17.5267 11.6944 19.3234L11.8044 19.3967C12.2078 19.6534 12.6478 19.9101 13.1244 20.1667L13.3078 20.2767C13.7844 20.5334 14.2244 20.7534 14.7011 20.9734L14.8478 21.0467C15.3978 21.3034 15.8744 21.5234 16.3511 21.7067C16.9378 21.9267 17.1945 22.0001 17.5978 22.0001C17.6711 22.0001 17.7444 22.0001 17.8178 22.0001C18.0744 22.0001 18.3311 21.9634 18.5511 21.8901C18.8811 21.7801 19.1745 21.6334 19.5411 21.3767C19.5778 21.3401 19.6511 21.2667 19.7245 21.2301C19.7978 21.1567 19.9078 21.0834 19.9811 21.0101C20.3845 20.6801 20.8611 20.1667 21.2278 19.6534C21.4111 19.3968 21.6678 18.9934 21.8144 18.6634C21.9611 18.3701 21.9978 18.0401 21.9978 17.7468C21.9978 17.3433 21.8511 16.9766 21.5944 16.6833ZM21.1544 18.4066C21.0811 18.6266 20.8978 18.92 20.6411 19.25C20.3111 19.7266 19.8711 20.1666 19.5044 20.4966C19.4311 20.57 19.3578 20.6433 19.2844 20.68C19.2111 20.7166 19.1744 20.7533 19.1011 20.79C18.8077 21.01 18.5511 21.12 18.3311 21.1933C18.1477 21.23 17.9644 21.2667 17.7811 21.2667C17.3777 21.2667 17.2311 21.2667 16.6444 21.0467C16.2044 20.8267 15.7278 20.6433 15.1778 20.3867L15.0311 20.3133C14.5911 20.0933 14.1145 19.8733 13.6745 19.6167L13.4911 19.5067C13.0511 19.2867 12.6111 19.03 12.2078 18.7733L12.0978 18.7C9.23777 16.94 6.85442 14.7766 4.80112 12.1C4.61777 11.8433 4.43446 11.5866 4.25112 11.33C4.14112 11.1833 4.03112 11.0733 3.95777 10.9266L3.73777 10.5966C3.55442 10.3766 3.40777 10.1566 3.26112 9.89999L3.22446 9.86334C3.07781 9.64334 2.96781 9.38669 2.82112 9.16669L2.78446 9.09334C2.08781 7.95669 1.53781 6.74669 1.09781 5.57334C0.584463 4.25334 0.657811 3.81334 0.951158 3.29999C1.09781 3.07999 1.79451 2.38334 2.34451 2.01664C3.15112 1.39334 3.59112 1.13664 3.84777 1.09999C3.99442 1.06334 4.32442 1.09999 4.50777 1.17334C4.58112 1.20999 4.72777 1.28334 4.83777 1.35669C5.38777 1.72334 7.22112 3.96003 7.84442 5.13334C8.13777 5.68334 8.24777 6.12334 8.17442 6.37999C8.10107 6.63664 8.02777 6.78334 7.18442 7.44334C6.96442 7.58999 6.78107 7.77334 6.63442 7.88334C6.59777 7.91999 6.56107 7.95669 6.52442 7.99334L6.48777 8.02999C6.45112 8.06664 6.41442 8.06664 6.41442 8.10334L6.37777 8.13999C6.19442 8.35999 6.08442 8.79999 6.08442 9.12999C6.12107 9.78999 6.48777 10.8533 7.03777 11.7333C7.44111 12.3567 8.17442 13.2 8.87112 13.8233C9.67777 14.5567 10.4111 15.07 11.2545 15.4733C12.3545 15.9867 13.0511 16.1333 13.6378 15.9133H13.6745L13.7478 15.8767C13.8212 15.84 13.9312 15.8033 13.9678 15.7667C14.0045 15.73 14.0412 15.73 14.0778 15.6933C14.1145 15.6567 14.1512 15.62 14.7378 14.9233C15.1778 14.41 15.3245 14.2633 15.4712 14.19C15.5078 14.1533 15.5812 14.1533 15.6545 14.1166C16.0579 13.97 16.4612 14.0066 16.9012 14.2266C17.2678 14.4466 18.1112 14.9233 18.6245 15.29C19.3945 15.8033 20.8612 16.9766 21.0079 17.16C21.1912 17.3433 21.2645 17.5266 21.2645 17.7833C21.2644 17.9666 21.2278 18.1866 21.1544 18.4066Z" fill="#F4F2EF"/>
</g>
<defs>
<clipPath id="clip0_461_93">
<rect width="22" height="22" fill="white"/>
</clipPath>
</defs>
</svg>
