<svg width="24" height="24" viewBox="0 0 24 24" fill="none" xmlns="http://www.w3.org/2000/svg">
<path d="M12 0.959991C5.90857 0.959991 0.959991 5.90857 0.959991 12C0.959991 13.958 1.49696 15.7852 2.39249 17.3803L0.977804 22.4306C0.955203 22.5114 0.954182 22.5968 0.974842 22.6781C0.995503 22.7594 1.03712 22.8339 1.09555 22.8942C1.15398 22.9544 1.22718 22.9983 1.30785 23.0214C1.38852 23.0445 1.47384 23.0461 1.5553 23.0259L6.82124 21.7209C8.36861 22.547 10.1244 23.04 12 23.04C18.0914 23.04 23.04 18.0914 23.04 12C23.04 5.90857 18.0914 0.959991 12 0.959991ZM12 1.91999C17.5726 1.91999 22.08 6.42741 22.08 12C22.08 17.5726 17.5726 22.08 12 22.08C10.2134 22.08 8.54021 21.6142 7.08562 20.8003C6.97923 20.7409 6.85422 20.7241 6.73593 20.7534L2.12437 21.8962L3.36093 17.4844C3.37862 17.422 3.38351 17.3567 3.37529 17.2924C3.36707 17.2282 3.34592 17.1662 3.31312 17.1103C2.42912 15.6113 1.91999 13.8672 1.91999 12C1.91999 6.42741 6.42741 1.91999 12 1.91999ZM7.98843 6.23999C7.68073 6.23999 7.24129 6.35447 6.8803 6.74343C6.66348 6.97705 5.75999 7.85736 5.75999 9.40499C5.75999 11.0185 6.87906 12.4108 7.01437 12.5897H7.0153V12.5906C7.00247 12.5737 7.18705 12.841 7.43343 13.1616C7.67981 13.4821 8.02435 13.903 8.45718 14.3587C9.32284 15.2702 10.54 16.3236 12.0506 16.9678C12.7463 17.264 13.2951 17.4429 13.7109 17.5734C14.4815 17.8154 15.1834 17.7786 15.7106 17.7009C16.1053 17.6428 16.5393 17.4533 16.9687 17.1816C17.3982 16.9098 17.8191 16.5719 18.0047 16.0584C18.1376 15.6903 18.2052 15.3502 18.2297 15.0703C18.2419 14.9304 18.2435 14.8068 18.2344 14.6925C18.2253 14.5781 18.235 14.4906 18.1284 14.3156C17.905 13.9487 17.6519 13.9391 17.3878 13.8084C17.2411 13.7358 16.8233 13.5318 16.4044 13.3322C15.9859 13.1328 15.6235 12.9561 15.4003 12.8766C15.2593 12.8258 15.0871 12.7528 14.8387 12.7809C14.5903 12.8091 14.345 12.9883 14.2022 13.2C14.0668 13.4007 13.5218 14.044 13.3556 14.2331C13.3534 14.2318 13.3678 14.2384 13.3022 14.2059C13.0967 14.1042 12.8453 14.0177 12.4734 13.8216C12.1015 13.6254 11.6363 13.3357 11.1272 12.8869V12.8859C10.3694 12.2188 9.83868 11.3813 9.67124 11.1C9.68252 11.0866 9.6699 11.1028 9.69374 11.0794L9.69468 11.0784C9.86581 10.9099 10.0175 10.7086 10.1456 10.5609C10.3273 10.3516 10.4075 10.1671 10.4944 9.99468C10.6675 9.65108 10.5711 9.27299 10.4709 9.07405V9.07312C10.4778 9.08688 10.4167 8.95207 10.3509 8.79655C10.2849 8.6406 10.2008 8.43841 10.1109 8.2228C9.93121 7.79159 9.73056 7.30795 9.61124 7.02468V7.02374C9.47067 6.69008 9.2805 6.44971 9.03187 6.33374C8.78323 6.21778 8.56356 6.25074 8.55468 6.2503H8.55374C8.37631 6.24212 8.18161 6.23999 7.98843 6.23999ZM7.98843 7.19999C8.17349 7.19999 8.35593 7.20225 8.50874 7.20937C8.66594 7.2172 8.65616 7.21784 8.62593 7.20374C8.59521 7.18942 8.63689 7.18477 8.72624 7.39687C8.84308 7.67424 9.04471 8.15963 9.22499 8.59218C9.31513 8.80845 9.39949 9.01142 9.46687 9.17062C9.53424 9.32981 9.57075 9.41869 9.61312 9.50343V9.50437L9.61405 9.5053C9.65559 9.58726 9.65192 9.53479 9.63749 9.56343C9.5362 9.76447 9.52245 9.81383 9.41999 9.93187C9.26398 10.1116 9.10485 10.312 9.02062 10.395C8.94692 10.4674 8.81395 10.5802 8.73093 10.8009C8.64778 11.022 8.68659 11.3254 8.81999 11.5519C8.99761 11.8534 9.58291 12.8061 10.4925 13.6069C11.0653 14.1118 11.599 14.446 12.0253 14.6709C12.4516 14.8958 12.7989 15.0272 12.8766 15.0656C13.0611 15.1569 13.2627 15.2278 13.4972 15.1997C13.7317 15.1715 13.9338 15.0293 14.0625 14.8837L14.0634 14.8828C14.2347 14.6886 14.7436 14.1075 14.9878 13.7494C14.9982 13.753 14.9948 13.7502 15.0759 13.7794V13.7803H15.0769C15.1139 13.7935 15.578 14.0012 15.9919 14.1984C16.4057 14.3956 16.8257 14.6006 16.9622 14.6681C17.1591 14.7656 17.2522 14.8291 17.2762 14.8294C17.2779 14.8716 17.2795 14.9174 17.2734 14.9869C17.2566 15.1797 17.2051 15.4465 17.1019 15.7322C17.0513 15.872 16.788 16.1605 16.4559 16.3706C16.1239 16.5808 15.7197 16.7292 15.57 16.7512C15.1199 16.8176 14.5856 16.8418 13.9987 16.6575C13.5918 16.5298 13.0845 16.3644 12.4275 16.0847C11.0951 15.5164 9.96268 14.5495 9.15374 13.6978C8.74928 13.2719 8.42522 12.8755 8.19468 12.5756C7.96457 12.2763 7.86408 12.1205 7.7803 12.0103L7.77937 12.0094C7.63065 11.8127 6.71999 10.546 6.71999 9.40499C6.71999 8.19743 7.28087 7.72388 7.58437 7.39687C7.7437 7.22519 7.91789 7.19999 7.98843 7.19999Z" fill="#F4F2EF"/>
</svg>
