<svg width="50" height="50" viewBox="0 0 50 50" fill="none" xmlns="http://www.w3.org/2000/svg">
<g clip-path="url(#clip0_475_543)">
<path d="M25.0002 32.292C23.2632 32.292 21.6299 32.9685 20.4012 34.1968C20.2318 34.3663 20.1365 34.5961 20.1365 34.8358C20.1365 35.0756 20.2317 35.3053 20.4011 35.4748L24.3612 39.435C24.5377 39.6114 24.7691 39.6997 25.0002 39.6997C25.2314 39.6997 25.4628 39.6115 25.6393 39.435L29.5994 35.4748C29.7688 35.3053 29.864 35.0756 29.864 34.8358C29.864 34.5961 29.7688 34.3663 29.5993 34.197C28.3706 32.9685 26.7374 32.292 25.0002 32.292ZM25.0002 37.5182L22.3789 34.897C23.1476 34.378 24.0526 34.0991 25.0002 34.0991C25.948 34.0991 26.853 34.378 27.6216 34.8969L25.0002 37.5182Z" fill="#C3AB7A"/>
<path d="M25.0002 25.1023C21.3472 25.1023 17.9096 26.528 15.3207 29.1168C15.1512 29.2862 15.056 29.5161 15.056 29.7557C15.056 29.9953 15.1512 30.2252 15.3207 30.3946L17.9966 33.0703C18.173 33.2467 18.4043 33.335 18.6355 33.335C18.8667 33.335 19.098 33.2468 19.2745 33.0703C20.8072 31.5376 22.8407 30.6935 25.0002 30.6935C27.1598 30.6935 29.1933 31.5375 30.7259 33.0701C31.0786 33.423 31.6509 33.423 32.0035 33.0701L34.6794 30.3943C34.8489 30.2249 34.9441 29.9951 34.9441 29.7554C34.9441 29.5158 34.8489 29.2859 34.6794 29.1164C32.0906 26.5279 28.6532 25.1023 25.0002 25.1023ZM31.3363 31.1818C29.558 29.6956 27.3399 28.8863 25.0002 28.8863C22.6605 28.8863 20.4424 29.6954 18.6639 31.182L17.2611 29.7793C19.4168 27.9224 22.1323 26.9093 25.0001 26.9093C27.8679 26.9093 30.5834 27.9223 32.7389 29.7791L31.3363 31.1818Z" fill="#C3AB7A"/>
<path d="M25.0002 17.9882C19.4499 17.9882 14.2267 20.1547 10.2926 24.0886C10.1233 24.258 10.0281 24.4878 10.0281 24.7275C10.0281 24.9671 10.1233 25.197 10.2928 25.3664L12.9685 28.0421C13.145 28.2186 13.3763 28.3068 13.6075 28.3068C13.8387 28.3068 14.0701 28.2186 14.2465 28.0421C17.1244 25.1642 20.9435 23.5793 25.0004 23.5793C29.0573 23.5793 32.8764 25.1642 35.7543 28.0419C36.1071 28.3948 36.6792 28.3948 37.0321 28.0419L39.7079 25.3661C39.8772 25.1967 39.9724 24.9669 39.9724 24.7272C39.9724 24.4876 39.8772 24.2577 39.7077 24.0883C35.7738 20.1546 30.5506 17.9882 25.0002 17.9882ZM36.3766 26.1416C33.2438 23.3174 29.2381 21.7722 25.0002 21.7722C20.7624 21.7722 16.7567 23.3175 13.6239 26.142L12.2242 24.7423C15.7319 21.5453 20.2341 19.7953 25.0002 19.7953C29.7664 19.7953 34.2686 21.5452 37.7761 24.7421L36.3766 26.1416Z" fill="#C3AB7A"/>
<path d="M44.7357 19.0601C39.4567 13.7811 32.4478 10.8739 25.0006 10.8739C17.553 10.8739 10.5441 13.7812 5.26505 19.0605C4.91218 19.4134 4.91218 19.9855 5.26505 20.3383L7.94083 23.014C8.11034 23.1836 8.34009 23.2787 8.57983 23.2787C8.81958 23.2787 9.04921 23.1836 9.21884 23.014C13.4418 18.7909 19.0464 16.4651 25.0006 16.4651C30.9547 16.4651 36.5592 18.7908 40.7821 23.0136C41.135 23.3663 41.707 23.3666 42.06 23.0136L44.7358 20.3378C44.9052 20.1684 45.0004 19.9385 45.0004 19.6989C45.0004 19.4593 44.9053 19.2295 44.7357 19.0601ZM41.4095 21.1086C36.928 16.942 31.136 14.6581 25.0006 14.6581C18.865 14.6581 13.073 16.9422 8.59152 21.109L7.19255 19.7102C12.0483 15.1707 18.3371 12.681 25.0006 12.681C31.6639 12.681 37.9524 15.1704 42.8083 19.7097L41.4095 21.1086Z" fill="#C3AB7A"/>
</g>
<path d="M25 0C11.25 0 0 11.25 0 25C0 38.75 11.25 50 25 50C38.75 50 50 38.75 50 25C50 11.25 38.75 0 25 0ZM25 48.3333C12.1667 48.3333 1.6667 37.8333 1.6667 25C1.6667 12.1667 12.1667 1.6667 25 1.6667C37.8333 1.6667 48.3333 12.1667 48.3333 25C48.3333 37.8333 37.8333 48.3333 25 48.3333Z" fill="#C3AB7A"/>
<defs>
<clipPath id="clip0_475_543">
<rect width="40" height="40" fill="white" transform="translate(5 5.28687)"/>
</clipPath>
</defs>
</svg>
